<?xml version="1.0" encoding="UTF-8" standalone="no"?><!DOCTYPE svg PUBLIC "-//W3C//DTD SVG 1.1//EN" "http://www.w3.org/Graphics/SVG/1.1/DTD/svg11.dtd"><svg width="100%" height="100%" viewBox="0 0 454 71" version="1.1" xmlns="http://www.w3.org/2000/svg" xmlns:xlink="http://www.w3.org/1999/xlink" xml:space="preserve" xmlns:serif="http://www.serif.com/" style="fill-rule:evenodd;clip-rule:evenodd;stroke-linejoin:round;stroke-miterlimit:1.41421;"><g><g><g transform="matrix(7.33215,0,0,7.33215,88.0896,298.06)"><path d="M-7.578,-31.006c-0.591,0 -1.157,-0.097 -1.696,-0.293c-0.539,-0.196 -1.011,-0.491 -1.416,-0.887c-0.406,-0.396 -0.728,-0.892 -0.966,-1.489c-0.239,-0.596 -0.358,-1.29 -0.358,-2.082c0,-0.782 0.124,-1.476 0.372,-2.082c0.248,-0.606 0.58,-1.116 0.995,-1.531c0.415,-0.415 0.892,-0.733 1.431,-0.952c0.539,-0.219 1.104,-0.329 1.695,-0.329c0.621,0 1.174,0.122 1.661,0.365c0.486,0.243 0.896,0.532 1.23,0.866l-1.288,1.574c-0.229,-0.201 -0.465,-0.365 -0.708,-0.494c-0.243,-0.129 -0.522,-0.193 -0.837,-0.193c-0.277,0 -0.537,0.062 -0.78,0.186c-0.244,0.124 -0.458,0.3 -0.644,0.529c-0.186,0.229 -0.334,0.511 -0.444,0.845c-0.11,0.334 -0.164,0.711 -0.164,1.13c0,0.878 0.183,1.551 0.551,2.018c0.367,0.468 0.851,0.701 1.452,0.701c0.363,0 0.685,-0.078 0.966,-0.236c0.282,-0.157 0.522,-0.346 0.723,-0.565l1.288,1.546c-0.401,0.458 -0.861,0.801 -1.381,1.03c-0.52,0.229 -1.081,0.343 -1.682,0.343Z" style="fill:#25222b;fill-rule:nonzero;"/><path d="M-0.308,-31.006c-0.649,0 -1.238,-0.109 -1.767,-0.329c-0.53,-0.219 -0.983,-0.536 -1.36,-0.951c-0.377,-0.415 -0.67,-0.926 -0.88,-1.532c-0.21,-0.605 -0.315,-1.29 -0.315,-2.053c0,-0.764 0.105,-1.443 0.315,-2.04c0.21,-0.596 0.503,-1.097 0.88,-1.502c0.377,-0.406 0.83,-0.713 1.36,-0.923c0.529,-0.21 1.118,-0.315 1.767,-0.315c0.639,0 1.226,0.105 1.76,0.315c0.535,0.21 0.99,0.52 1.367,0.93c0.377,0.41 0.67,0.911 0.88,1.503c0.21,0.591 0.315,1.268 0.315,2.032c0,0.763 -0.105,1.448 -0.315,2.053c-0.21,0.606 -0.503,1.117 -0.88,1.532c-0.377,0.415 -0.832,0.732 -1.367,0.951c-0.534,0.22 -1.121,0.329 -1.76,0.329Zm0,-2.118c0.563,0 1.004,-0.245 1.324,-0.737c0.32,-0.491 0.479,-1.161 0.479,-2.01c0,-0.849 -0.159,-1.505 -0.479,-1.968c-0.32,-0.463 -0.761,-0.694 -1.324,-0.694c-0.563,0 -1.004,0.231 -1.324,0.694c-0.319,0.463 -0.479,1.119 -0.479,1.968c0,0.849 0.16,1.519 0.479,2.01c0.32,0.492 0.761,0.737 1.324,0.737Z" style="fill:#25222b;fill-rule:nonzero;"/><path d="M4.815,-31.177l0,-9.302l3.521,0c0.496,0 0.971,0.047 1.424,0.143c0.453,0.095 0.849,0.257 1.188,0.486c0.338,0.229 0.608,0.537 0.808,0.923c0.201,0.387 0.301,0.871 0.301,1.453c0,0.668 -0.136,1.221 -0.408,1.66c-0.272,0.439 -0.637,0.782 -1.095,1.03l2.018,3.607l-2.748,0l-1.603,-3.12l-0.944,0l0,3.12l-2.462,0Zm2.462,-5.066l0.887,0c0.992,0 1.489,-0.411 1.489,-1.231c0,-0.401 -0.127,-0.677 -0.38,-0.83c-0.253,-0.153 -0.622,-0.229 -1.109,-0.229l-0.887,0l0,2.29Z" style="fill:#25222b;fill-rule:nonzero;"/><path d="M13.116,-31.177l0,-9.302l6.01,0l0,2.06l-3.549,0l0,1.46l3.034,0l0,2.061l-3.034,0l0,1.66l3.692,0l0,2.061l-6.153,0Z" style="fill:#25222b;fill-rule:nonzero;"/></g></g><g transform="matrix(6.6121,0,0,6.6121,263.046,274.139)"><path d="M-2.028,-31.38c-0.64,-0.21 -1.151,-0.493 -1.533,-0.847c-0.14,-0.131 -0.21,-0.294 -0.21,-0.49c0,-0.131 0.037,-0.245 0.112,-0.343c0.074,-0.098 0.163,-0.147 0.266,-0.147c0.121,0 0.252,0.051 0.392,0.154c0.868,0.672 1.857,1.008 2.968,1.008c0.802,0 1.418,-0.154 1.848,-0.462c0.429,-0.308 0.644,-0.747 0.644,-1.316c0,-0.327 -0.103,-0.591 -0.308,-0.791c-0.206,-0.201 -0.476,-0.362 -0.812,-0.483c-0.336,-0.122 -0.789,-0.248 -1.358,-0.378c-0.766,-0.178 -1.393,-0.364 -1.883,-0.56c-0.49,-0.196 -0.887,-0.476 -1.19,-0.84c-0.304,-0.364 -0.455,-0.84 -0.455,-1.428c0,-0.56 0.151,-1.057 0.455,-1.491c0.303,-0.434 0.728,-0.77 1.274,-1.008c0.546,-0.238 1.169,-0.357 1.869,-0.357c0.653,0 1.262,0.1 1.827,0.301c0.564,0.201 1.038,0.488 1.421,0.861c0.149,0.149 0.224,0.313 0.224,0.49c0,0.131 -0.038,0.245 -0.112,0.343c-0.075,0.098 -0.164,0.147 -0.266,0.147c-0.103,0 -0.238,-0.051 -0.406,-0.154c-0.458,-0.373 -0.882,-0.635 -1.274,-0.784c-0.392,-0.149 -0.864,-0.224 -1.414,-0.224c-0.775,0 -1.377,0.161 -1.806,0.483c-0.43,0.322 -0.644,0.772 -0.644,1.351c0,0.494 0.189,0.865 0.567,1.113c0.378,0.247 0.959,0.464 1.743,0.651c0.849,0.205 1.516,0.394 2.002,0.567c0.485,0.172 0.889,0.431 1.211,0.777c0.322,0.345 0.483,0.807 0.483,1.386c0,0.55 -0.152,1.036 -0.455,1.456c-0.304,0.42 -0.731,0.746 -1.281,0.98c-0.551,0.233 -1.181,0.35 -1.89,0.35c-0.7,0 -1.37,-0.105 -2.009,-0.315Z" style="fill:#25222b;fill-rule:nonzero;"/><path d="M11.922,-31.639c0,0.13 -0.053,0.249 -0.161,0.357c-0.107,0.107 -0.23,0.161 -0.37,0.161c-0.122,0 -0.248,-0.056 -0.378,-0.168l-5.236,-4.578l0,4.172c0,0.177 -0.052,0.319 -0.154,0.427c-0.103,0.107 -0.243,0.161 -0.42,0.161c-0.178,0 -0.318,-0.054 -0.42,-0.161c-0.103,-0.108 -0.154,-0.25 -0.154,-0.427l0,-8.834c0,-0.177 0.051,-0.32 0.154,-0.427c0.102,-0.107 0.242,-0.161 0.42,-0.161c0.177,0 0.317,0.054 0.42,0.161c0.102,0.107 0.154,0.25 0.154,0.427l0,4.018l4.998,-4.438c0.102,-0.103 0.224,-0.154 0.364,-0.154c0.14,0 0.261,0.054 0.364,0.161c0.102,0.107 0.153,0.226 0.153,0.357c0,0.14 -0.06,0.271 -0.181,0.392l-4.522,3.976l4.773,4.172c0.131,0.121 0.196,0.256 0.196,0.406Z" style="fill:#25222b;fill-rule:nonzero;"/></g><path d="M416.008,66.649c-4.227,-1.388 -7.606,-3.255 -10.136,-5.6c-0.926,-0.864 -1.389,-1.944 -1.389,-3.24c0,-0.864 0.247,-1.62 0.741,-2.268c0.494,-0.648 1.08,-0.972 1.759,-0.972c0.802,0 1.666,0.339 2.592,1.018c5.739,4.444 12.28,6.665 19.624,6.665c5.307,0 9.38,-1.018 12.219,-3.055c2.839,-2.036 4.258,-4.936 4.258,-8.701c0,-2.16 -0.679,-3.903 -2.036,-5.23c-1.358,-1.327 -3.148,-2.391 -5.369,-3.194c-2.222,-0.802 -5.215,-1.635 -8.979,-2.499c-5.061,-1.172 -9.211,-2.407 -12.451,-3.703c-3.24,-1.296 -5.862,-3.147 -7.868,-5.554c-2.006,-2.406 -3.008,-5.554 -3.008,-9.442c0,-3.702 1.002,-6.988 3.008,-9.858c2.006,-2.87 4.813,-5.091 8.424,-6.665c3.61,-1.574 7.729,-2.36 12.357,-2.36c4.32,0 8.347,0.663 12.081,1.99c3.733,1.327 6.865,3.224 9.395,5.693c0.988,0.987 1.481,2.067 1.481,3.24c0,0.864 -0.247,1.619 -0.74,2.267c-0.494,0.648 -1.08,0.972 -1.759,0.972c-0.679,0 -1.574,-0.339 -2.685,-1.018c-3.023,-2.468 -5.831,-4.196 -8.423,-5.184c-2.592,-0.987 -5.709,-1.481 -9.35,-1.481c-5.122,0 -9.102,1.065 -11.941,3.194c-2.839,2.129 -4.258,5.107 -4.258,8.933c0,3.27 1.25,5.723 3.749,7.359c2.499,1.635 6.341,3.07 11.525,4.304c5.616,1.358 10.028,2.608 13.237,3.749c3.209,1.142 5.878,2.854 8.007,5.138c2.129,2.283 3.194,5.338 3.194,9.164c0,3.641 -1.003,6.85 -3.009,9.627c-2.005,2.777 -4.829,4.937 -8.47,6.48c-3.641,1.543 -7.806,2.314 -12.496,2.314c-4.629,0 -9.057,-0.694 -13.284,-2.083Z" style="fill:#25222b;fill-rule:nonzero;"/><path d="M386.911,64.813l0,-59.73c0,-2.15 1.769,-3.919 3.919,-3.919c2.15,0 3.919,1.769 3.919,3.919l0,59.73c0,2.15 -1.769,3.919 -3.919,3.919c-2.15,0 -3.919,-1.769 -3.919,-3.919Z" style="fill:#7033cc;fill-rule:nonzero;"/><path d="M376.949,19.657c0,-2.163 -1.756,-3.919 -3.919,-3.919c-2.163,0 -3.919,1.756 -3.919,3.919l0,45.156c0,2.163 1.756,3.919 3.919,3.919c2.163,0 3.919,-1.756 3.919,-3.919l0,-45.156Z" style="fill:#3f147b;"/><path d="M359.131,38.609c0,-2.163 -1.756,-3.919 -3.919,-3.919c-2.163,0 -3.919,1.756 -3.919,3.919l0,26.204c0,2.163 1.756,3.919 3.919,3.919c2.163,0 3.919,-1.756 3.919,-3.919l0,-26.204Z" style="fill:#20004d;"/></g></svg>