<svg xmlns="http://www.w3.org/2000/svg" viewBox="0 0 462.14 121.19"><defs><style>.cls-1{font-size:104.93px;font-family:SourceSansPro-Black, Source Sans Pro;font-weight:800;}.cls-1,.cls-2,.cls-3,.cls-4,.cls-5{fill:#fff;}.cls-2{font-size:92.57px;font-family:Nunito-Regular, Nunito;}.cls-4,.cls-5{fill-rule:evenodd;}.cls-4{opacity:0.7;}.cls-5{opacity:0.4;}</style></defs><title>logo-coreskills--white</title><g id="Camada_2" data-name="Camada 2"><g id="Camada_1-2" data-name="Camada 1"><text class="cls-1" transform="translate(0 87.09)">C</text><text class="cls-1" transform="translate(54.14 87.09)">O</text><text class="cls-1" transform="translate(120.46 87.09)">R</text><text class="cls-1" transform="translate(181.32 87.09)">E</text><text class="cls-2" transform="translate(238.65 85.62)">S</text><text class="cls-2" transform="translate(290.22 85.62)">K</text><text class="cls-2" transform="translate(405.03 85.62)">S</text><path class="cls-3" d="M391.53,82.44V22.71a3.92,3.92,0,1,1,7.84,0V82.44a3.92,3.92,0,1,1-7.84,0Z"/><path class="cls-4" d="M381.57,30.06a3.92,3.92,0,0,0-7.84,0V82.44a3.92,3.92,0,0,0,7.84,0Z"/><path class="cls-5" d="M363.75,56.24a3.92,3.92,0,0,0-7.84,0v26.2a3.92,3.92,0,0,0,7.84,0Z"/></g></g></svg>